<svg width="600" height="280" viewBox="0 0 600 280" xmlns="http://www.w3.org/2000/svg" fill="none">
  <rect width="600" height="280" fill="transparent" />
  <g fill="#0f0f13">
    <rect x="40" y="170" width="520" height="70" />
    <rect x="80" y="130" width="60" height="110" />
    <rect x="170" y="110" width="70" height="130" />
    <rect x="270" y="90" width="60" height="150" />
    <rect x="360" y="110" width="70" height="130" />
    <rect x="470" y="125" width="60" height="115" />
    <rect x="250" y="70" width="100" height="20" />
    <rect x="195" y="90" width="20" height="20" />
    <rect x="385" y="90" width="20" height="20" />
    <rect x="230" y="70" width="15" height="40" />
    <rect x="355" y="70" width="15" height="40" />
    <rect x="290" y="40" width="20" height="50" />
    <polygon points="300,20 280,40 320,40" />
    <rect x="110" y="120" width="20" height="20" />
    <rect x="470" y="110" width="20" height="20" />
    <rect x="260" y="180" width="80" height="60" />
    <rect x="250" y="160" width="100" height="20" />
  </g>
</svg>
